<?xml version="1.0" encoding="utf-8"?>
<!-- Generator: Adobe Illustrator 21.1.0, SVG Export Plug-In . SVG Version: 6.00 Build 0)  -->
<svg version="1.1" id="Layer_1" xmlns="http://www.w3.org/2000/svg" xmlns:xlink="http://www.w3.org/1999/xlink" x="0px" y="0px"
	 viewBox="0 0 500 500" style="enable-background:new 0 0 500 500;" xml:space="preserve">
<style type="text/css">
	.st0{fill:#737374;}
</style>
<g>
	<path class="st0" d="M325.8,227.7c-14.5,26-31.5,38.5-52,38.5c-6.5,0-13.5-1.5-25.5-5.5l-21.5-7c-10-3.5-18.5-5-27-5
		c-15,0-22,4-30.5,16.5l-7.5-4.5c12.5-26.5,29-38.5,53.5-38.5c9.5,0,14.5,1,28,5.5l22,7.5c7.5,3,18,4.5,26.5,4.5
		c11.5,0,16-3,26.5-16.5L325.8,227.7z"/>
</g>
</svg>
